<svg width="37" height="31" viewBox="0 0 37 31" fill="none" xmlns="http://www.w3.org/2000/svg">
<path d="M13.6175 6.8H7.2226C5.04462 6.8 3.95482 6.8 3.12294 7.22144C2.3912 7.59215 1.7967 8.18325 1.42386 8.91081C1 9.73793 1 10.8215 1 12.987V23.8137C1 25.9792 1 27.0605 1.42386 27.8876C1.7967 28.6152 2.3912 29.2083 3.12294 29.579C3.954 30 5.04249 30 7.21621 30H29.7838C31.9575 30 33.0444 30 33.8755 29.579C34.6072 29.2083 35.2037 28.6152 35.5766 27.8876C36 27.0613 36 25.9806 36 23.8193V12.9807C36 10.8194 36 9.73712 35.5766 8.91081C35.2037 8.18325 34.6072 7.59215 33.8755 7.22144C33.0436 6.8 31.9561 6.8 29.7782 6.8H23.3822M13.6175 6.8H13.7376M13.6175 6.8C13.6418 6.80001 13.6674 6.80001 13.6944 6.8L13.7376 6.8M13.6175 6.8C13.4111 6.79991 13.2955 6.79885 13.204 6.78867C12.0615 6.66148 11.2779 5.58021 11.5178 4.46229C11.5402 4.35825 11.5843 4.22662 11.6717 3.96596L11.6755 3.95493C11.7753 3.65723 11.8252 3.50837 11.8803 3.37702C12.4447 2.03218 13.7229 1.1176 15.1846 1.01046C15.3273 1 15.4842 1 15.7998 1H21.2C21.5156 1 21.6738 1 21.8166 1.01046C23.2782 1.1176 24.555 2.03218 25.1195 3.37702C25.1746 3.50837 25.2247 3.65706 25.3245 3.95475C25.4144 4.22285 25.4594 4.35696 25.482 4.46247C25.722 5.58039 24.9396 6.66148 23.7971 6.78867C23.7056 6.79885 23.5889 6.79991 23.3822 6.8M13.7376 6.8H23.2619M23.2619 6.8H23.3822M23.2619 6.8L23.3051 6.8C23.3321 6.80001 23.3578 6.80001 23.3822 6.8M18.5 24.2C15.2783 24.2 12.6667 21.6033 12.6667 18.4C12.6667 15.1967 15.2783 12.6 18.5 12.6C21.7217 12.6 24.3333 15.1967 24.3333 18.4C24.3333 21.6033 21.7217 24.2 18.5 24.2Z" stroke="white" stroke-width="2" stroke-linecap="round" stroke-linejoin="round"/>
</svg>
